<mxfile host="Electron" agent="Mozilla/5.0 (Windows NT 10.0; Win64; x64) AppleWebKit/537.36 (KHTML, like Gecko) draw.io/24.7.17 Chrome/128.0.6613.36 Electron/32.0.1 Safari/537.36" version="24.7.17">
  <diagram name="Page-1" id="fN1EH6qN2EsNyn6HYPSK">
    <mxGraphModel dx="1098" dy="820" grid="1" gridSize="10" guides="1" tooltips="1" connect="1" arrows="1" fold="1" page="1" pageScale="1" pageWidth="850" pageHeight="1100" math="0" shadow="0">
      <root>
        <mxCell id="0" />
        <mxCell id="1" parent="0" />
        <mxCell id="WsFO-n6EWwfcdyit3bLg-1" value="Сотрудник" style="shape=process;whiteSpace=wrap;html=1;backgroundOutline=1;" vertex="1" parent="1">
          <mxGeometry x="110" y="470" width="120" height="60" as="geometry" />
        </mxCell>
        <mxCell id="WsFO-n6EWwfcdyit3bLg-2" value="Банк" style="shape=process;whiteSpace=wrap;html=1;backgroundOutline=1;" vertex="1" parent="1">
          <mxGeometry x="650" y="60" width="120" height="60" as="geometry" />
        </mxCell>
        <mxCell id="WsFO-n6EWwfcdyit3bLg-3" value="Налоговая" style="shape=process;whiteSpace=wrap;html=1;backgroundOutline=1;" vertex="1" parent="1">
          <mxGeometry x="770" y="280" width="120" height="60" as="geometry" />
        </mxCell>
        <mxCell id="WsFO-n6EWwfcdyit3bLg-4" value="Сбор данных о сотрудниках" style="rounded=1;whiteSpace=wrap;html=1;" vertex="1" parent="1">
          <mxGeometry x="110" y="310" width="120" height="60" as="geometry" />
        </mxCell>
        <mxCell id="WsFO-n6EWwfcdyit3bLg-5" value="" style="endArrow=classic;html=1;rounded=0;exitX=0.25;exitY=0;exitDx=0;exitDy=0;entryX=0.25;entryY=1;entryDx=0;entryDy=0;" edge="1" parent="1" source="WsFO-n6EWwfcdyit3bLg-1" target="WsFO-n6EWwfcdyit3bLg-4">
          <mxGeometry width="50" height="50" relative="1" as="geometry">
            <mxPoint x="140" y="460" as="sourcePoint" />
            <mxPoint x="190" y="410" as="targetPoint" />
          </mxGeometry>
        </mxCell>
        <mxCell id="WsFO-n6EWwfcdyit3bLg-6" value="Данные о&lt;br&gt;сотруднике" style="edgeLabel;html=1;align=center;verticalAlign=middle;resizable=0;points=[];" vertex="1" connectable="0" parent="WsFO-n6EWwfcdyit3bLg-5">
          <mxGeometry x="-0.06" y="1" relative="1" as="geometry">
            <mxPoint x="-39" y="-3" as="offset" />
          </mxGeometry>
        </mxCell>
        <mxCell id="WsFO-n6EWwfcdyit3bLg-7" value="" style="endArrow=classic;html=1;rounded=0;exitX=0.75;exitY=0;exitDx=0;exitDy=0;entryX=0.75;entryY=1;entryDx=0;entryDy=0;" edge="1" parent="1" source="WsFO-n6EWwfcdyit3bLg-1" target="WsFO-n6EWwfcdyit3bLg-4">
          <mxGeometry width="50" height="50" relative="1" as="geometry">
            <mxPoint x="210" y="470" as="sourcePoint" />
            <mxPoint x="260" y="420" as="targetPoint" />
          </mxGeometry>
        </mxCell>
        <mxCell id="WsFO-n6EWwfcdyit3bLg-8" value="Данные об&lt;br&gt;отработанном времени" style="edgeLabel;html=1;align=center;verticalAlign=middle;resizable=0;points=[];" vertex="1" connectable="0" parent="WsFO-n6EWwfcdyit3bLg-7">
          <mxGeometry x="0.02" y="-2" relative="1" as="geometry">
            <mxPoint x="68" y="1" as="offset" />
          </mxGeometry>
        </mxCell>
        <mxCell id="WsFO-n6EWwfcdyit3bLg-9" value="Расчет зарплаты" style="rounded=1;whiteSpace=wrap;html=1;" vertex="1" parent="1">
          <mxGeometry x="400" y="310" width="120" height="60" as="geometry" />
        </mxCell>
        <mxCell id="WsFO-n6EWwfcdyit3bLg-10" value="" style="endArrow=classic;html=1;rounded=0;exitX=1;exitY=0.5;exitDx=0;exitDy=0;entryX=0;entryY=0.5;entryDx=0;entryDy=0;" edge="1" parent="1" source="WsFO-n6EWwfcdyit3bLg-4" target="WsFO-n6EWwfcdyit3bLg-9">
          <mxGeometry width="50" height="50" relative="1" as="geometry">
            <mxPoint x="250" y="360" as="sourcePoint" />
            <mxPoint x="300" y="310" as="targetPoint" />
          </mxGeometry>
        </mxCell>
        <mxCell id="WsFO-n6EWwfcdyit3bLg-11" value="Данные для&lt;br&gt;начисления зарплаты" style="edgeLabel;html=1;align=center;verticalAlign=middle;resizable=0;points=[];" vertex="1" connectable="0" parent="WsFO-n6EWwfcdyit3bLg-10">
          <mxGeometry x="0.037" y="2" relative="1" as="geometry">
            <mxPoint y="-18" as="offset" />
          </mxGeometry>
        </mxCell>
        <mxCell id="WsFO-n6EWwfcdyit3bLg-12" value="Расчет налогов" style="rounded=1;whiteSpace=wrap;html=1;" vertex="1" parent="1">
          <mxGeometry x="400" y="170" width="120" height="60" as="geometry" />
        </mxCell>
        <mxCell id="WsFO-n6EWwfcdyit3bLg-13" value="" style="endArrow=classic;html=1;rounded=0;exitX=0.5;exitY=0;exitDx=0;exitDy=0;entryX=0.5;entryY=1;entryDx=0;entryDy=0;" edge="1" parent="1" source="WsFO-n6EWwfcdyit3bLg-9" target="WsFO-n6EWwfcdyit3bLg-12">
          <mxGeometry width="50" height="50" relative="1" as="geometry">
            <mxPoint x="580" y="320" as="sourcePoint" />
            <mxPoint x="630" y="270" as="targetPoint" />
          </mxGeometry>
        </mxCell>
        <mxCell id="WsFO-n6EWwfcdyit3bLg-14" value="Данные для &lt;br&gt;расчета налогов" style="edgeLabel;html=1;align=center;verticalAlign=middle;resizable=0;points=[];" vertex="1" connectable="0" parent="WsFO-n6EWwfcdyit3bLg-13">
          <mxGeometry x="0.0571" y="3" relative="1" as="geometry">
            <mxPoint x="-47" as="offset" />
          </mxGeometry>
        </mxCell>
        <mxCell id="WsFO-n6EWwfcdyit3bLg-15" value="Отправка зарплаты" style="rounded=1;whiteSpace=wrap;html=1;" vertex="1" parent="1">
          <mxGeometry x="650" y="170" width="120" height="60" as="geometry" />
        </mxCell>
        <mxCell id="WsFO-n6EWwfcdyit3bLg-16" value="" style="endArrow=classic;html=1;rounded=0;exitX=1;exitY=0.5;exitDx=0;exitDy=0;entryX=0;entryY=0.5;entryDx=0;entryDy=0;" edge="1" parent="1" source="WsFO-n6EWwfcdyit3bLg-12" target="WsFO-n6EWwfcdyit3bLg-15">
          <mxGeometry width="50" height="50" relative="1" as="geometry">
            <mxPoint x="540" y="220" as="sourcePoint" />
            <mxPoint x="590" y="170" as="targetPoint" />
          </mxGeometry>
        </mxCell>
        <mxCell id="WsFO-n6EWwfcdyit3bLg-17" value="Расчитанные налоги" style="edgeLabel;html=1;align=center;verticalAlign=middle;resizable=0;points=[];" vertex="1" connectable="0" parent="WsFO-n6EWwfcdyit3bLg-16">
          <mxGeometry x="-0.1667" y="3" relative="1" as="geometry">
            <mxPoint x="10" y="-7" as="offset" />
          </mxGeometry>
        </mxCell>
        <mxCell id="WsFO-n6EWwfcdyit3bLg-18" value="" style="endArrow=classic;html=1;rounded=0;exitX=1;exitY=0.5;exitDx=0;exitDy=0;entryX=0.5;entryY=1;entryDx=0;entryDy=0;" edge="1" parent="1" source="WsFO-n6EWwfcdyit3bLg-9" target="WsFO-n6EWwfcdyit3bLg-15">
          <mxGeometry width="50" height="50" relative="1" as="geometry">
            <mxPoint x="610" y="350" as="sourcePoint" />
            <mxPoint x="660" y="300" as="targetPoint" />
            <Array as="points">
              <mxPoint x="710" y="340" />
            </Array>
          </mxGeometry>
        </mxCell>
        <mxCell id="WsFO-n6EWwfcdyit3bLg-19" value="Расчитанная зарплата" style="edgeLabel;html=1;align=center;verticalAlign=middle;resizable=0;points=[];" vertex="1" connectable="0" parent="WsFO-n6EWwfcdyit3bLg-18">
          <mxGeometry x="-0.26" y="1" relative="1" as="geometry">
            <mxPoint x="-21" y="-9" as="offset" />
          </mxGeometry>
        </mxCell>
        <mxCell id="WsFO-n6EWwfcdyit3bLg-20" value="" style="endArrow=classic;html=1;rounded=0;exitX=0.5;exitY=0;exitDx=0;exitDy=0;entryX=0.5;entryY=1;entryDx=0;entryDy=0;" edge="1" parent="1" source="WsFO-n6EWwfcdyit3bLg-15" target="WsFO-n6EWwfcdyit3bLg-2">
          <mxGeometry width="50" height="50" relative="1" as="geometry">
            <mxPoint x="770" y="180" as="sourcePoint" />
            <mxPoint x="820" y="130" as="targetPoint" />
          </mxGeometry>
        </mxCell>
        <mxCell id="WsFO-n6EWwfcdyit3bLg-21" value="Платежное&lt;br&gt;поручение" style="edgeLabel;html=1;align=center;verticalAlign=middle;resizable=0;points=[];" vertex="1" connectable="0" parent="WsFO-n6EWwfcdyit3bLg-20">
          <mxGeometry x="-0.08" y="-3" relative="1" as="geometry">
            <mxPoint x="37" as="offset" />
          </mxGeometry>
        </mxCell>
        <mxCell id="WsFO-n6EWwfcdyit3bLg-22" value="Формировние отчетов" style="rounded=1;whiteSpace=wrap;html=1;" vertex="1" parent="1">
          <mxGeometry x="650" y="400" width="120" height="60" as="geometry" />
        </mxCell>
        <mxCell id="WsFO-n6EWwfcdyit3bLg-23" value="" style="endArrow=classic;html=1;rounded=0;exitX=0.75;exitY=1;exitDx=0;exitDy=0;entryX=0.75;entryY=0;entryDx=0;entryDy=0;" edge="1" parent="1" source="WsFO-n6EWwfcdyit3bLg-15" target="WsFO-n6EWwfcdyit3bLg-22">
          <mxGeometry width="50" height="50" relative="1" as="geometry">
            <mxPoint x="810" y="280" as="sourcePoint" />
            <mxPoint x="860" y="230" as="targetPoint" />
          </mxGeometry>
        </mxCell>
        <mxCell id="WsFO-n6EWwfcdyit3bLg-24" value="Информация о&lt;br&gt;транзакциях" style="edgeLabel;html=1;align=center;verticalAlign=middle;resizable=0;points=[];" vertex="1" connectable="0" parent="WsFO-n6EWwfcdyit3bLg-23">
          <mxGeometry x="0.04" y="-1" relative="1" as="geometry">
            <mxPoint x="-49" y="52" as="offset" />
          </mxGeometry>
        </mxCell>
        <mxCell id="WsFO-n6EWwfcdyit3bLg-25" value="" style="endArrow=classic;html=1;rounded=0;exitX=1;exitY=0.5;exitDx=0;exitDy=0;entryX=0.5;entryY=0;entryDx=0;entryDy=0;" edge="1" parent="1" source="WsFO-n6EWwfcdyit3bLg-15" target="WsFO-n6EWwfcdyit3bLg-3">
          <mxGeometry width="50" height="50" relative="1" as="geometry">
            <mxPoint x="830" y="200" as="sourcePoint" />
            <mxPoint x="880" y="150" as="targetPoint" />
            <Array as="points">
              <mxPoint x="830" y="200" />
            </Array>
          </mxGeometry>
        </mxCell>
        <mxCell id="WsFO-n6EWwfcdyit3bLg-26" value="Налоги" style="edgeLabel;html=1;align=center;verticalAlign=middle;resizable=0;points=[];" vertex="1" connectable="0" parent="WsFO-n6EWwfcdyit3bLg-25">
          <mxGeometry x="0.5143" y="2" relative="1" as="geometry">
            <mxPoint x="28" as="offset" />
          </mxGeometry>
        </mxCell>
        <mxCell id="WsFO-n6EWwfcdyit3bLg-27" value="" style="endArrow=classic;html=1;rounded=0;exitX=1;exitY=0.5;exitDx=0;exitDy=0;entryX=0.5;entryY=1;entryDx=0;entryDy=0;" edge="1" parent="1" source="WsFO-n6EWwfcdyit3bLg-22" target="WsFO-n6EWwfcdyit3bLg-3">
          <mxGeometry width="50" height="50" relative="1" as="geometry">
            <mxPoint x="800" y="450" as="sourcePoint" />
            <mxPoint x="850" y="400" as="targetPoint" />
            <Array as="points">
              <mxPoint x="830" y="430" />
            </Array>
          </mxGeometry>
        </mxCell>
        <mxCell id="WsFO-n6EWwfcdyit3bLg-28" value="Отчет" style="edgeLabel;html=1;align=center;verticalAlign=middle;resizable=0;points=[];" vertex="1" connectable="0" parent="WsFO-n6EWwfcdyit3bLg-27">
          <mxGeometry x="0.32" y="-2" relative="1" as="geometry">
            <mxPoint x="18" as="offset" />
          </mxGeometry>
        </mxCell>
        <mxCell id="WsFO-n6EWwfcdyit3bLg-29" value="" style="endArrow=classic;html=1;rounded=0;exitX=0.5;exitY=1;exitDx=0;exitDy=0;entryX=1;entryY=0.5;entryDx=0;entryDy=0;" edge="1" parent="1" source="WsFO-n6EWwfcdyit3bLg-22" target="WsFO-n6EWwfcdyit3bLg-1">
          <mxGeometry width="50" height="50" relative="1" as="geometry">
            <mxPoint x="690" y="550" as="sourcePoint" />
            <mxPoint x="740" y="500" as="targetPoint" />
            <Array as="points">
              <mxPoint x="710" y="500" />
            </Array>
          </mxGeometry>
        </mxCell>
        <mxCell id="WsFO-n6EWwfcdyit3bLg-30" value="Отчет о начислении зарплаты" style="edgeLabel;html=1;align=center;verticalAlign=middle;resizable=0;points=[];" vertex="1" connectable="0" parent="WsFO-n6EWwfcdyit3bLg-29">
          <mxGeometry x="-0.2192" y="2" relative="1" as="geometry">
            <mxPoint x="-67" y="-12" as="offset" />
          </mxGeometry>
        </mxCell>
      </root>
    </mxGraphModel>
  </diagram>
</mxfile>
